<svg width="220" height="220" viewBox="0 0 220 220" role="img" aria-labelledby="title desc" xmlns="http://www.w3.org/2000/svg">
  <title id="title">Chellanam Medical Centre mark</title>
  <desc id="desc">A circular medical centre mark with a coastal wave and cross.</desc>
  <defs>
    <linearGradient id="sea" x1="30" y1="28" x2="184" y2="184" gradientUnits="userSpaceOnUse">
      <stop stop-color="#0e6f9f"/>
      <stop offset="1" stop-color="#034d77"/>
    </linearGradient>
    <linearGradient id="aqua" x1="74" y1="67" x2="150" y2="154" gradientUnits="userSpaceOnUse">
      <stop stop-color="#6bd5d7"/>
      <stop offset="1" stop-color="#24a7b5"/>
    </linearGradient>
  </defs>
  <circle cx="110" cy="110" r="104" fill="#fff"/>
  <circle cx="110" cy="110" r="94" fill="url(#sea)"/>
  <circle cx="110" cy="110" r="72" fill="none" stroke="#f8fcff" stroke-width="5"/>
  <circle cx="110" cy="110" r="55" fill="url(#aqua)"/>
  <path d="M110 58 156 88v52l-46 29-46-29V88l46-30Z" fill="#f9ffff"/>
  <path d="M101 85h18v25h25v18h-25v25h-18v-25H76v-18h25V85Z" fill="#2ab7c3"/>
  <path d="M43 116c10 11 21 14 33 9 8-3 14-10 23-11 13-2 23 11 36 10 15-1 24-15 42-8" fill="none" stroke="#8ae2e0" stroke-width="4" stroke-linecap="round" opacity=".8"/>
  <g fill="#fff" font-family="Arial, Helvetica, sans-serif" font-weight="800" letter-spacing="6">
    <text font-size="19">
      <textPath href="#topArc" startOffset="50%" text-anchor="middle">CHELLANAM</textPath>
    </text>
    <text font-size="16">
      <textPath href="#bottomArc" startOffset="50%" text-anchor="middle">MEDICAL CENTRE</textPath>
    </text>
  </g>
  <path id="topArc" d="M45 112a65 65 0 0 1 130 0" fill="none"/>
  <path id="bottomArc" d="M176 112a66 66 0 0 1-132 0" fill="none"/>
</svg>
